<?xml version="1.0" encoding="UTF-8" standalone="no"?>
<svg
   viewBox="0 0 512 512"
   version="1.1"
   id="svg68"
   sodipodi:docname="not_found.svg"
   xml:space="preserve"
   inkscape:export-filename="../Escritorio/Programacion/Desarrollo Web/Practicas *SERIAS*/Raffle_Page/src/public/imgs/not-found.png"
   inkscape:export-xdpi="96"
   inkscape:export-ydpi="96"
   inkscape:version="1.2.1 (9c6d41e410, 2022-07-14)"
   xmlns:inkscape="http://www.inkscape.org/namespaces/inkscape"
   xmlns:sodipodi="http://sodipodi.sourceforge.net/DTD/sodipodi-0.dtd"
   xmlns="http://www.w3.org/2000/svg"
   xmlns:svg="http://www.w3.org/2000/svg"><defs
     id="defs72" /><sodipodi:namedview
     id="namedview70"
     pagecolor="#505050"
     bordercolor="#eeeeee"
     borderopacity="1"
     inkscape:showpageshadow="0"
     inkscape:pageopacity="0"
     inkscape:pagecheckerboard="0"
     inkscape:deskcolor="#505050"
     showgrid="false"
     inkscape:zoom="1.0546875"
     inkscape:cx="256.47407"
     inkscape:cy="211.43704"
     inkscape:window-width="1366"
     inkscape:window-height="717"
     inkscape:window-x="0"
     inkscape:window-y="0"
     inkscape:window-maximized="1"
     inkscape:current-layer="svg68" /><path
     d="m 436.07052,446.3143 -92.65657,-92.65656 c 21.07028,-31.2803 31.46608,-70.36326 25.90049,-112.0084 C 359.82431,170.8139 301.76881,113.16867 230.86371,104.19174 125.44267,90.852142 36.795802,179.49901 50.13618,284.92004 c 8.97925,70.93607 66.63222,129.038 137.47541,138.4817 41.64514,5.56481 80.73584,-4.82712 112.0084,-25.90049 l 92.65656,92.65656 c 12.09103,12.09103 31.6983,12.09103 43.78933,0 12.08018,-12.1065 12.08018,-31.76796 0.005,-43.84351 z M 110.03087,263.86524 c 0,-54.63409 44.44729,-99.08137 99.08138,-99.08137 54.63409,0 99.08137,44.44728 99.08137,99.08137 0,54.63409 -44.44728,99.08138 -99.08137,99.08138 -54.63409,0 -99.08138,-44.43181 -99.08138,-99.08138 z"
     id="path2788"
     style="stroke-width:0.774073" /><!--! Font Awesome Pro 6.1.1 by @fontawesome - https://fontawesome.com License - https://fontawesome.com/license (Commercial License) Copyright 2022 Fonticons, Inc. --><path
     d="m 267.93658,114.46391 c 0,-47.145984 38.21026,-85.35624 85.35625,-85.35624 47.14599,0 85.35625,38.210256 85.35625,85.35624 0,47.146 -38.21026,85.35626 -85.35625,85.35626 -47.14599,0 -85.35625,-38.21026 -85.35625,-85.35626 z m 58.349,-15.970941 15.70421,15.670881 -15.70421,15.97094 c -3.10083,3.13417 -3.10083,8.2022 0,11.03631 3.13418,3.4009 8.2022,3.4009 11.03629,0 l 15.67087,-15.40415 15.97097,15.40415 c 3.13417,3.4009 8.2022,3.4009 11.03628,0 3.40092,-2.83411 3.40092,-7.90214 0,-11.03631 l -15.40412,-15.97094 15.40412,-15.670881 c 3.40092,-2.834094 3.40092,-7.902128 0,-11.036304 -2.83408,-3.100829 -7.90211,-3.100829 -11.03628,0 L 352.99274,103.16089 337.32187,87.456665 c -2.83409,-3.100829 -7.90211,-3.100829 -11.03629,0 -3.10083,3.134176 -3.10083,8.20221 0,11.036304 z"
     id="path66"
     style="fill:#ff0000;fill-opacity:1;stroke-width:0.333423" /></svg>
