<?xml version="1.0" encoding="UTF-8"?>
<!DOCTYPE svg PUBLIC "-//W3C//DTD SVG 1.1//EN" "http://www.w3.org/Graphics/SVG/1.1/DTD/svg11.dtd">
<svg xmlns="http://www.w3.org/2000/svg" version="1.1" width="216px" height="219px" style="shape-rendering:geometricPrecision; text-rendering:geometricPrecision; image-rendering:optimizeQuality; fill-rule:evenodd; clip-rule:evenodd" xmlns:xlink="http://www.w3.org/1999/xlink">
<g><path style="opacity:0.016" fill="#030d12" d="M 98.5,-0.5 C 104.833,-0.5 111.167,-0.5 117.5,-0.5C 124.43,0.654689 131.43,2.15469 138.5,4C 144.726,5.45536 150.392,7.95536 155.5,11.5C 154.508,11.3284 153.842,11.6618 153.5,12.5C 152.833,12.5 152.5,12.1667 152.5,11.5C 152.167,10.1667 151.833,10.1667 151.5,11.5C 150.833,11.5 150.5,11.1667 150.5,10.5C 150.167,9.16667 149.833,9.16667 149.5,10.5C 148.833,10.5 148.5,10.1667 148.5,9.5C 148.167,8.16667 147.833,8.16667 147.5,9.5C 146.508,9.67158 145.842,9.33825 145.5,8.5C 146.183,7.35594 145.849,7.35594 144.5,8.5C 143.508,8.67158 142.842,8.33825 142.5,7.5C 143.183,6.35594 142.849,6.35594 141.5,7.5C 140.508,7.67158 139.842,7.33825 139.5,6.5C 140.183,5.35594 139.849,5.35594 138.5,6.5C 137.508,6.67158 136.842,6.33825 136.5,5.5C 136.715,4.266 136.048,4.266 134.5,5.5C 133.508,5.67158 132.842,5.33825 132.5,4.5C 132.715,3.266 132.048,3.266 130.5,4.5C 129.209,4.73731 128.209,4.40397 127.5,3.5C 129.021,2.36698 128.355,2.36698 125.5,3.5C 124.209,3.73731 123.209,3.40397 122.5,2.5C 121.867,1.19252 119.867,1.19252 116.5,2.5C 110.5,2.5 104.5,2.5 98.5,2.5C 95.3658,1.17762 93.6991,1.17762 93.5,2.5C 92.791,3.40397 91.791,3.73731 90.5,3.5C 87.5515,2.24776 86.5515,2.24776 87.5,3.5C 86.791,4.40397 85.791,4.73731 84.5,4.5C 83.5,3.16667 82.5,3.16667 81.5,4.5C 81.5,5.16667 81.1667,5.5 80.5,5.5C 79.791,4.59603 78.791,4.26269 77.5,4.5C 84.3333,2.08413 91.3333,0.417462 98.5,-0.5 Z"/></g>
<g><path style="opacity:1" fill="#30d7fc" d="M 93.5,2.5 C 95.1667,2.5 96.8333,2.5 98.5,2.5C 104.5,2.5 110.5,2.5 116.5,2.5C 116.833,2.5 117.167,2.5 117.5,2.5C 117.5,3.5 117.5,4.5 117.5,5.5C 153.326,13.8458 178.826,34.8458 194,68.5C 210.741,117.259 200.241,159.092 162.5,194C 140.988,210.294 118.654,218.127 95.5,217.5C 93.1667,217.5 90.8333,217.5 88.5,217.5C 87.0813,216.549 85.4147,216.216 83.5,216.5C 82.4324,215.566 81.099,215.232 79.5,215.5C 78.4324,214.566 77.099,214.232 75.5,214.5C 75.1583,213.662 74.4916,213.328 73.5,213.5C 73.5,212.833 73.1667,212.5 72.5,212.5C 70.8828,211.962 69.2161,211.629 67.5,211.5C 66.4863,210.326 65.153,209.66 63.5,209.5C 63.5,208.833 63.1667,208.5 62.5,208.5C 62.1667,208.5 61.8333,208.5 61.5,208.5C 61.5,207.833 61.1667,207.5 60.5,207.5C 60.1667,207.5 59.8333,207.5 59.5,207.5C 59.5,206.833 59.1667,206.5 58.5,206.5C 58.1667,206.5 57.8333,206.5 57.5,206.5C 57.5,205.833 57.1667,205.5 56.5,205.5C 56.1667,205.5 55.8333,205.5 55.5,205.5C 55.5,204.833 55.1667,204.5 54.5,204.5C 54.1667,204.5 53.8333,204.5 53.5,204.5C 53.5,203.833 53.1667,203.5 52.5,203.5C 52.5,202.833 52.1667,202.5 51.5,202.5C 50.1667,201.833 48.8333,201.167 47.5,200.5C 47.5,199.833 47.1667,199.5 46.5,199.5C 45.8333,199.167 45.1667,198.833 44.5,198.5C 44.5,197.833 44.1667,197.5 43.5,197.5C 43.5,196.833 43.1667,196.5 42.5,196.5C 41.5,195.833 40.5,195.167 39.5,194.5C 39.5,193.833 39.1667,193.5 38.5,193.5C 16.4707,174.801 3.47069,151.135 -0.5,122.5C -0.5,114.5 -0.5,106.5 -0.5,98.5C 1.72901,83.4774 6.39568,69.1441 13.5,55.5C 14.1667,55.5 14.5,55.1667 14.5,54.5C 15.7368,53.0351 16.7368,51.3684 17.5,49.5C 18.1667,49.5 18.5,49.1667 18.5,48.5C 19.1667,48.5 19.5,48.1667 19.5,47.5C 20.9213,44.9906 22.5879,42.6572 24.5,40.5C 25.1667,40.5 25.5,40.1667 25.5,39.5C 26.1667,39.5 26.5,39.1667 26.5,38.5C 29.1667,35.1667 32.1667,32.1667 35.5,29.5C 36.1667,29.5 36.5,29.1667 36.5,28.5C 37.1667,28.5 37.5,28.1667 37.5,27.5C 38.1667,27.5 38.5,27.1667 38.5,26.5C 39.1667,26.5 39.5,26.1667 39.5,25.5C 40.1667,25.1667 40.8333,24.8333 41.5,24.5C 42.1667,24.5 42.5,24.1667 42.5,23.5C 43.1667,23.5 43.5,23.1667 43.5,22.5C 44.1667,22.1667 44.8333,21.8333 45.5,21.5C 46.1667,21.5 46.5,21.1667 46.5,20.5C 47.1667,20.5 47.5,20.1667 47.5,19.5C 47.8333,19.5 48.1667,19.5 48.5,19.5C 49.1667,19.5 49.5,19.1667 49.5,18.5C 50.1667,18.5 50.5,18.1667 50.5,17.5C 50.8333,17.5 51.1667,17.5 51.5,17.5C 52.1667,17.5 52.5,17.1667 52.5,16.5C 52.8333,16.5 53.1667,16.5 53.5,16.5C 54.1667,16.5 54.5,16.1667 54.5,15.5C 54.8333,15.5 55.1667,15.5 55.5,15.5C 56.1667,15.5 56.5,15.1667 56.5,14.5C 56.8333,14.5 57.1667,14.5 57.5,14.5C 58.1667,14.5 58.5,14.1667 58.5,13.5C 58.8333,13.5 59.1667,13.5 59.5,13.5C 60.1667,13.5 60.5,13.1667 60.5,12.5C 60.8333,12.5 61.1667,12.5 61.5,12.5C 62.1667,12.5 62.5,12.1667 62.5,11.5C 62.8333,11.5 63.1667,11.5 63.5,11.5C 64.1667,11.5 64.5,11.1667 64.5,10.5C 64.8333,10.5 65.1667,10.5 65.5,10.5C 66.1667,10.5 66.5,10.1667 66.5,9.5C 67.4916,9.67158 68.1583,9.33825 68.5,8.5C 68.8333,8.5 69.1667,8.5 69.5,8.5C 69.8333,8.5 70.1667,8.5 70.5,8.5C 71.1667,8.5 71.5,8.16667 71.5,7.5C 72.1667,7.5 72.8333,7.5 73.5,7.5C 74.1667,7.5 74.5,7.16667 74.5,6.5C 75.1667,6.5 75.8333,6.5 76.5,6.5C 77.4916,6.67158 78.1583,6.33825 78.5,5.5C 79.1667,5.5 79.8333,5.5 80.5,5.5C 81.1667,5.5 81.5,5.16667 81.5,4.5C 82.5,4.5 83.5,4.5 84.5,4.5C 85.791,4.73731 86.791,4.40397 87.5,3.5C 88.5,3.5 89.5,3.5 90.5,3.5C 91.791,3.73731 92.791,3.40397 93.5,2.5 Z"/></g>
<g><path style="opacity:0.014" fill="#050e11" d="M 77.5,4.5 C 77.5,5.16667 77.8333,5.5 78.5,5.5C 78.1583,6.33825 77.4916,6.67158 76.5,6.5C 75.8333,5.16667 75.1667,5.16667 74.5,6.5C 74.5,7.16667 74.1667,7.5 73.5,7.5C 72.8333,6.16667 72.1667,6.16667 71.5,7.5C 71.5,8.16667 71.1667,8.5 70.5,8.5C 70.1667,7.16667 69.8333,7.16667 69.5,8.5C 69.1667,8.5 68.8333,8.5 68.5,8.5C 67.5084,8.32842 66.8417,8.66175 66.5,9.5C 66.5,10.1667 66.1667,10.5 65.5,10.5C 65.1667,9.16667 64.8333,9.16667 64.5,10.5C 64.5,11.1667 64.1667,11.5 63.5,11.5C 63.1667,10.1667 62.8333,10.1667 62.5,11.5C 62.5,12.1667 62.1667,12.5 61.5,12.5C 61.1667,11.1667 60.8333,11.1667 60.5,12.5C 60.5,13.1667 60.1667,13.5 59.5,13.5C 59.1667,12.1667 58.8333,12.1667 58.5,13.5C 58.5,14.1667 58.1667,14.5 57.5,14.5C 57.1667,13.1667 56.8333,13.1667 56.5,14.5C 56.5,15.1667 56.1667,15.5 55.5,15.5C 55.1667,14.1667 54.8333,14.1667 54.5,15.5C 54.5,16.1667 54.1667,16.5 53.5,16.5C 53.5,15.8333 53.1667,15.5 52.5,15.5C 59.9389,9.95044 68.2722,6.28378 77.5,4.5 Z"/></g>
<g><path style="opacity:0.998" fill="#01bef4" d="M 117.5,2.5 C 119.167,2.5 120.833,2.5 122.5,2.5C 123.209,3.40397 124.209,3.73731 125.5,3.5C 126.167,3.5 126.833,3.5 127.5,3.5C 128.209,4.40397 129.209,4.73731 130.5,4.5C 131.167,4.5 131.833,4.5 132.5,4.5C 132.842,5.33825 133.508,5.67158 134.5,5.5C 135.167,5.5 135.833,5.5 136.5,5.5C 136.842,6.33825 137.508,6.67158 138.5,6.5C 138.833,6.5 139.167,6.5 139.5,6.5C 139.842,7.33825 140.508,7.67158 141.5,7.5C 141.833,7.5 142.167,7.5 142.5,7.5C 142.842,8.33825 143.508,8.67158 144.5,8.5C 144.833,8.5 145.167,8.5 145.5,8.5C 145.842,9.33825 146.508,9.67158 147.5,9.5C 147.833,9.5 148.167,9.5 148.5,9.5C 148.5,10.1667 148.833,10.5 149.5,10.5C 149.833,10.5 150.167,10.5 150.5,10.5C 150.5,11.1667 150.833,11.5 151.5,11.5C 151.833,11.5 152.167,11.5 152.5,11.5C 152.5,12.1667 152.833,12.5 153.5,12.5C 154.167,12.5 154.833,12.5 155.5,12.5C 155.5,13.1667 155.833,13.5 156.5,13.5C 156.5,14.1667 156.833,14.5 157.5,14.5C 157.833,14.5 158.167,14.5 158.5,14.5C 158.5,15.1667 158.833,15.5 159.5,15.5C 159.833,15.5 160.167,15.5 160.5,15.5C 160.5,16.1667 160.833,16.5 161.5,16.5C 161.833,16.5 162.167,16.5 162.5,16.5C 162.5,17.1667 162.833,17.5 163.5,17.5C 163.833,17.5 164.167,17.5 164.5,17.5C 164.5,18.1667 164.833,18.5 165.5,18.5C 165.5,19.1667 165.833,19.5 166.5,19.5C 166.833,19.5 167.167,19.5 167.5,19.5C 167.5,20.1667 167.833,20.5 168.5,20.5C 168.5,21.1667 168.833,21.5 169.5,21.5C 169.833,21.5 170.167,21.5 170.5,21.5C 170.5,22.1667 170.833,22.5 171.5,22.5C 171.5,23.1667 171.833,23.5 172.5,23.5C 172.5,24.1667 172.833,24.5 173.5,24.5C 174.167,24.8333 174.833,25.1667 175.5,25.5C 175.5,26.1667 175.833,26.5 176.5,26.5C 176.5,27.1667 176.833,27.5 177.5,27.5C 177.833,28.5 178.5,29.1667 179.5,29.5C 182.833,32.1667 185.833,35.1667 188.5,38.5C 188.5,39.1667 188.833,39.5 189.5,39.5C 189.5,40.1667 189.833,40.5 190.5,40.5C 190.5,41.1667 190.833,41.5 191.5,41.5C 196.345,47.8622 200.678,54.5289 204.5,61.5C 207.626,67.8772 209.959,74.5438 211.5,81.5C 211.294,84.4951 211.96,87.1617 213.5,89.5C 213.5,90.1667 213.833,90.5 214.5,90.5C 214.198,93.0593 214.532,95.3926 215.5,97.5C 215.5,106.167 215.5,114.833 215.5,123.5C 214.313,126.946 213.646,130.613 213.5,134.5C 212.566,135.568 212.232,136.901 212.5,138.5C 211.566,139.568 211.232,140.901 211.5,142.5C 209.129,147.265 207.129,152.265 205.5,157.5C 204.662,157.842 204.328,158.508 204.5,159.5C 203.662,159.842 203.328,160.508 203.5,161.5C 202.662,161.842 202.328,162.508 202.5,163.5C 201.833,163.5 201.5,163.833 201.5,164.5C 200.662,164.842 200.328,165.508 200.5,166.5C 199.662,166.842 199.328,167.508 199.5,168.5C 198.833,168.5 198.5,168.833 198.5,169.5C 197.662,169.842 197.328,170.508 197.5,171.5C 196.833,171.5 196.5,171.833 196.5,172.5C 195.833,172.5 195.5,172.833 195.5,173.5C 194.662,173.842 194.328,174.508 194.5,175.5C 193.833,175.5 193.5,175.833 193.5,176.5C 192.833,176.5 192.5,176.833 192.5,177.5C 191.662,177.842 191.328,178.508 191.5,179.5C 190.833,179.5 190.5,179.833 190.5,180.5C 189.833,180.5 189.5,180.833 189.5,181.5C 188.833,181.5 188.5,181.833 188.5,182.5C 187.833,182.5 187.5,182.833 187.5,183.5C 186.833,183.5 186.5,183.833 186.5,184.5C 185.833,184.5 185.5,184.833 185.5,185.5C 184.833,185.5 184.5,185.833 184.5,186.5C 183.833,186.5 183.5,186.833 183.5,187.5C 182.833,187.5 182.5,187.833 182.5,188.5C 181.833,188.5 181.5,188.833 181.5,189.5C 180.833,189.5 180.5,189.833 180.5,190.5C 179.833,190.5 179.5,190.833 179.5,191.5C 178.833,191.5 178.5,191.833 178.5,192.5C 177.833,192.5 177.5,192.833 177.5,193.5C 177.167,193.5 176.833,193.5 176.5,193.5C 175.833,193.5 175.5,193.833 175.5,194.5C 174.833,194.5 174.5,194.833 174.5,195.5C 173.833,195.5 173.5,195.833 173.5,196.5C 173.167,196.5 172.833,196.5 172.5,196.5C 171.833,196.5 171.5,196.833 171.5,197.5C 170.833,197.5 170.5,197.833 170.5,198.5C 169.833,198.5 169.5,198.833 169.5,199.5C 169.167,199.5 168.833,199.5 168.5,199.5C 167.833,199.5 167.5,199.833 167.5,200.5C 166.833,200.5 166.5,200.833 166.5,201.5C 166.167,201.5 165.833,201.5 165.5,201.5C 164.833,201.5 164.5,201.833 164.5,202.5C 163.833,202.5 163.5,202.833 163.5,203.5C 162.508,203.328 161.842,203.662 161.5,204.5C 161.167,204.5 160.833,204.5 160.5,204.5C 159.833,204.5 159.5,204.833 159.5,205.5C 159.167,205.5 158.833,205.5 158.5,205.5C 157.833,205.5 157.5,205.833 157.5,206.5C 157.167,206.5 156.833,206.5 156.5,206.5C 155.833,206.5 155.5,206.833 155.5,207.5C 154.833,207.5 154.5,207.833 154.5,208.5C 153.833,208.5 153.167,208.5 152.5,208.5C 151.833,208.5 151.5,208.833 151.5,209.5C 151.167,209.5 150.833,209.5 150.5,209.5C 149.508,209.328 148.842,209.662 148.5,210.5C 147.833,210.5 147.5,210.833 147.5,211.5C 146.833,211.5 146.167,211.5 145.5,211.5C 144.508,211.328 143.842,211.662 143.5,212.5C 142.833,212.5 142.5,212.833 142.5,213.5C 141.209,213.263 140.209,213.596 139.5,214.5C 138.5,214.5 137.5,214.5 136.5,214.5C 135.508,214.328 134.842,214.662 134.5,215.5C 133.833,215.5 133.167,215.5 132.5,215.5C 131.508,215.328 130.842,215.662 130.5,216.5C 129.209,216.263 128.209,216.596 127.5,217.5C 124.941,217.198 122.607,217.532 120.5,218.5C 112.167,218.5 103.833,218.5 95.5,218.5C 95.5,218.167 95.5,217.833 95.5,217.5C 118.654,218.127 140.988,210.294 162.5,194C 200.241,159.092 210.741,117.259 194,68.5C 178.826,34.8458 153.326,13.8458 117.5,5.5C 117.5,4.5 117.5,3.5 117.5,2.5 Z"/></g>
<g><path style="opacity:0.013" fill="#050e11" d="M 155.5,12.5 C 155.5,12.1667 155.5,11.8333 155.5,11.5C 158.992,12.4097 161.992,14.0764 164.5,16.5C 163.833,16.5 163.5,16.8333 163.5,17.5C 162.833,17.5 162.5,17.1667 162.5,16.5C 162.167,15.1667 161.833,15.1667 161.5,16.5C 160.833,16.5 160.5,16.1667 160.5,15.5C 160.167,14.1667 159.833,14.1667 159.5,15.5C 158.833,15.5 158.5,15.1667 158.5,14.5C 158.167,13.1667 157.833,13.1667 157.5,14.5C 156.833,14.5 156.5,14.1667 156.5,13.5C 155.833,13.5 155.5,13.1667 155.5,12.5 Z"/></g>
<g><path style="opacity:0.01" fill="#030609" d="M 52.5,15.5 C 52.5,15.8333 52.5,16.1667 52.5,16.5C 51.8333,16.5 51.5,16.8333 51.5,17.5C 51.1667,17.5 50.8333,17.5 50.5,17.5C 49.8333,17.5 49.5,17.8333 49.5,18.5C 49.5,19.1667 49.1667,19.5 48.5,19.5C 48.5,18.8333 48.1667,18.5 47.5,18.5C 48.6594,16.7497 50.326,15.7497 52.5,15.5 Z"/></g>
<g><path style="opacity:0.013" fill="#030a0d" d="M 164.5,17.5 C 164.5,17.1667 164.5,16.8333 164.5,16.5C 166.027,16.427 167.027,17.0937 167.5,18.5C 166.833,18.5 166.5,18.8333 166.5,19.5C 165.833,19.5 165.5,19.1667 165.5,18.5C 164.833,18.5 164.5,18.1667 164.5,17.5 Z"/></g>
<g><path style="opacity:0.01" fill="#040a0e" d="M 47.5,18.5 C 47.5,18.8333 47.5,19.1667 47.5,19.5C 46.8333,19.5 46.5,19.8333 46.5,20.5C 46.5,21.1667 46.1667,21.5 45.5,21.5C 44.3264,19.6322 44.9931,18.6322 47.5,18.5 Z"/></g>
<g><path style="opacity:0.012" fill="#030b0e" d="M 167.5,19.5 C 167.5,19.1667 167.5,18.8333 167.5,18.5C 169.027,18.427 170.027,19.0937 170.5,20.5C 169.833,20.5 169.5,20.8333 169.5,21.5C 168.833,21.5 168.5,21.1667 168.5,20.5C 167.833,20.5 167.5,20.1667 167.5,19.5 Z"/></g>
<g><path style="opacity:0.011" fill="#01070a" d="M 170.5,21.5 C 170.5,21.1667 170.5,20.8333 170.5,20.5C 173.292,20.9103 174.292,22.2436 173.5,24.5C 172.833,24.5 172.5,24.1667 172.5,23.5C 171.833,23.5 171.5,23.1667 171.5,22.5C 170.833,22.5 170.5,22.1667 170.5,21.5 Z"/></g>
<g><path style="opacity:0.011" fill="#030a0c" d="M 43.5,22.5 C 42.8333,22.5 42.5,22.8333 42.5,23.5C 42.5,24.1667 42.1667,24.5 41.5,24.5C 40.1474,23.1329 40.4807,22.1329 42.5,21.5C 43.1067,21.6236 43.44,21.9569 43.5,22.5 Z"/></g>
<g><path style="opacity:0.01" fill="#010507" d="M 39.5,25.5 C 38.8333,25.5 38.5,25.8333 38.5,26.5C 37.8333,26.5 37.5,26.8333 37.5,27.5C 36.8333,27.5 36.5,27.8333 36.5,28.5C 36.5,29.1667 36.1667,29.5 35.5,29.5C 34.6832,27.6923 35.3498,26.1923 37.5,25C 38.4368,24.3083 39.1034,24.475 39.5,25.5 Z"/></g>
<g><path style="opacity:0.01" fill="#02090d" d="M 175.5,25.5 C 175.897,24.475 176.563,24.3083 177.5,25C 179.65,26.1923 180.317,27.6923 179.5,29.5C 178.5,29.1667 177.833,28.5 177.5,27.5C 176.833,27.5 176.5,27.1667 176.5,26.5C 175.833,26.5 175.5,26.1667 175.5,25.5 Z"/></g>
<g><path style="opacity:1" fill="#0894ed" d="M 74.5,189.5 C 30.5351,165.467 15.0351,129.134 28,80.5C 36.8177,58.1853 51.9844,41.852 73.5,31.5C 110.109,18.6533 142.275,25.6533 170,52.5C 199.191,89.6248 199.858,127.291 172,165.5C 144.589,193.644 112.089,201.644 74.5,189.5 Z"/></g>
<g><path style="opacity:1" fill="#00c4fe" d="M 73.5,31.5 C 51.9844,41.852 36.8177,58.1853 28,80.5C 15.0351,129.134 30.5351,165.467 74.5,189.5C 35.3615,177.241 15.0282,150.575 13.5,109.5C 15.3685,71.6179 34.0351,45.7846 69.5,32C 70.7932,31.51 72.1266,31.3433 73.5,31.5 Z"/></g>
<g><path style="opacity:1" fill="#f4f4f4" d="M 168.5,74.5 C 175.105,90.1884 177.271,106.522 175,123.5C 173.252,130.9 171.419,138.233 169.5,145.5C 169.12,148.792 170.453,151.125 173.5,152.5C 167.167,162.167 159.167,170.167 149.5,176.5C 148.69,173.168 146.69,171.668 143.5,172C 141.092,174.369 141.092,176.869 143.5,179.5C 133.177,184.832 122.177,187.832 110.5,188.5C 111.093,185.404 110.093,183.071 107.5,181.5C 104.971,183.063 103.971,185.396 104.5,188.5C 92.5303,188.759 81.5303,185.759 71.5,179.5C 74.8123,174.903 73.8123,172.403 68.5,172C 67.4404,173.298 66.2737,174.465 65,175.5C 55.3691,169.703 47.5357,162.036 41.5,152.5C 44.7248,151.187 45.8915,148.853 45,145.5C 42.6182,144.134 40.4515,144.467 38.5,146.5C 32.8569,136.235 29.8569,125.235 29.5,113.5C 35.1581,114.321 36.8248,112.154 34.5,107C 32.8659,106.506 31.1992,106.34 29.5,106.5C 29.4306,95.5423 31.9306,85.2089 37,75.5C 39.7181,74.9874 42.5515,74.9874 45.5,75.5C 46.2747,71.8184 44.9414,69.3184 41.5,68C 47.3458,58.1542 55.1792,50.3208 65,44.5C 66.2737,45.5353 67.4404,46.702 68.5,48C 69.8333,48.6667 71.1667,48.6667 72.5,48C 73.2439,45.1494 73.2439,42.4828 72.5,40C 82.6246,35.0121 93.2913,32.1788 104.5,31.5C 104.338,33.5273 104.505,35.5273 105,37.5C 106.667,38.8333 108.333,38.8333 110,37.5C 110.495,35.5273 110.662,33.5273 110.5,31.5C 121.655,32.4555 132.321,35.2888 142.5,40C 141.756,42.4828 141.756,45.1494 142.5,48C 143.833,48.6667 145.167,48.6667 146.5,48C 147.56,46.702 148.726,45.5353 150,44.5C 159.821,50.3208 167.654,58.1542 173.5,68C 170.466,69.1912 168.799,71.3579 168.5,74.5 Z"/></g>
<g><path style="opacity:0.008" fill="#02080b" d="M 26.5,38.5 C 26.5,39.1667 26.1667,39.5 25.5,39.5C 24.8333,39.5 24.5,39.8333 24.5,40.5C 23.475,40.1034 23.3083,39.4368 24,38.5C 24.7697,37.4019 25.603,37.4019 26.5,38.5 Z"/></g>
<g><path style="opacity:0.007" fill="#010608" d="M 191.5,41.5 C 190.833,41.5 190.5,41.1667 190.5,40.5C 189.833,40.5 189.5,40.1667 189.5,39.5C 188.833,39.5 188.5,39.1667 188.5,38.5C 190.298,37.5371 191.632,38.2038 192.5,40.5C 192.376,41.1067 192.043,41.44 191.5,41.5 Z"/></g>
<g><path style="opacity:0.007" fill="#030c0d" d="M 19.5,47.5 C 19.5,48.1667 19.1667,48.5 18.5,48.5C 17.8333,48.5 17.5,48.8333 17.5,49.5C 16.475,49.1034 16.3083,48.4368 17,47.5C 17.7697,46.4019 18.603,46.4019 19.5,47.5 Z"/></g>
<g><path style="opacity:0.008" fill="#000000" d="M 14.5,54.5 C 13.8333,54.5 13.5,54.8333 13.5,55.5C 12.2875,54.5029 12.4542,53.5029 14,52.5C 14.4643,53.0944 14.631,53.7611 14.5,54.5 Z"/></g>
<g><path style="opacity:1" fill="#ff6b53" d="M 113.5,98.5 C 109.5,97.1667 105.5,97.1667 101.5,98.5C 101.333,84.1628 101.5,69.8295 102,55.5C 105.667,51.5 109.333,51.5 113,55.5C 113.5,69.8295 113.667,84.1628 113.5,98.5 Z"/></g>
<g><path style="opacity:0.006" fill="#000000" d="M 205.5,61.5 C 205.167,61.5 204.833,61.5 204.5,61.5C 204.833,58.8333 205.167,58.8333 205.5,61.5 Z"/></g>
<g><path style="opacity:0.012" fill="#000000" d="M 205.5,61.5 C 206.833,62.1667 206.833,62.1667 205.5,61.5 Z"/></g>
<g><path style="opacity:1" fill="#e4e6e7" d="M 168.5,74.5 C 171.687,75.1464 174.854,75.4797 178,75.5C 183.071,85.2132 185.571,95.5465 185.5,106.5C 182.115,105.79 179.781,106.956 178.5,110C 179.781,113.044 182.115,114.21 185.5,113.5C 185.143,125.235 182.143,136.235 176.5,146.5C 174.385,144.385 172.051,144.051 169.5,145.5C 171.419,138.233 173.252,130.9 175,123.5C 177.271,106.522 175.105,90.1884 168.5,74.5 Z"/></g>
<g><path style="opacity:0.009" fill="#000000" d="M 1.5,81.5 C 1.35055,80.448 1.51722,79.448 2,78.5C 2.74012,79.7494 2.57346,80.7494 1.5,81.5 Z"/></g>
<g><path style="opacity:0.009" fill="#000000" d="M 1.5,81.5 C 1.65668,82.8734 1.49001,84.2068 1,85.5C 0.235015,83.9343 0.401682,82.6009 1.5,81.5 Z"/></g>
<g><path style="opacity:0.009" fill="#000000" d="M 215.5,85.5 C 215.5,87.1667 215.5,88.8333 215.5,90.5C 215.167,90.5 214.833,90.5 214.5,90.5C 214.216,88.5853 214.549,86.9187 215.5,85.5 Z"/></g>
<g><path style="opacity:0.01" fill="#000000" d="M -0.5,86.5 C 0.833333,87.8333 0.833333,89.1667 -0.5,90.5C -0.5,89.1667 -0.5,87.8333 -0.5,86.5 Z"/></g>
<g><path style="opacity:0.494" fill="#0b738f" d="M 211.5,81.5 C 212.768,83.9052 213.435,86.5718 213.5,89.5C 211.96,87.1617 211.294,84.4951 211.5,81.5 Z"/></g>
<g><path style="opacity:1" fill="#ffc20a" d="M 113.5,98.5 C 120.99,103.678 122.49,110.345 118,118.5C 113.085,123.568 107.585,124.568 101.5,121.5C 109.5,113.833 109.5,106.167 101.5,98.5C 105.5,97.1667 109.5,97.1667 113.5,98.5 Z"/></g>
<g><path style="opacity:1" fill="#ffd641" d="M 101.5,98.5 C 109.5,106.167 109.5,113.833 101.5,121.5C 94.5026,116.509 93.0026,110.176 97,102.5C 98.3712,100.959 99.8712,99.6253 101.5,98.5 Z"/></g>
<g><path style="opacity:0.011" fill="#000000" d="M 215.5,130.5 C 215.5,131.833 215.5,133.167 215.5,134.5C 215.167,134.5 214.833,134.5 214.5,134.5C 214.232,132.901 214.566,131.568 215.5,130.5 Z"/></g>
<g><path style="opacity:0.009" fill="#000000" d="M 213.5,134.5 C 213.833,134.5 214.167,134.5 214.5,134.5C 214.768,136.099 214.434,137.432 213.5,138.5C 213.5,137.167 213.5,135.833 213.5,134.5 Z"/></g>
<g><path style="opacity:0.008" fill="#000000" d="M 212.5,138.5 C 212.833,138.5 213.167,138.5 213.5,138.5C 213.768,140.099 213.434,141.432 212.5,142.5C 212.5,141.167 212.5,139.833 212.5,138.5 Z"/></g>
<g><path style="opacity:0.009" fill="#000000" d="M 211.5,142.5 C 211.833,142.5 212.167,142.5 212.5,142.5C 212.167,146.5 211.833,146.5 211.5,142.5 Z"/></g>
<g><path style="opacity:0.01" fill="#000000" d="M 205.5,157.5 C 206.833,158.167 206.833,158.833 205.5,159.5C 205.5,158.833 205.5,158.167 205.5,157.5 Z"/></g>
<g><path style="opacity:0.01" fill="#000000" d="M 204.5,159.5 C 204.833,159.5 205.167,159.5 205.5,159.5C 205.672,160.492 205.338,161.158 204.5,161.5C 204.5,160.833 204.5,160.167 204.5,159.5 Z"/></g>
<g><path style="opacity:0.008" fill="#000000" d="M 203.5,161.5 C 203.833,161.5 204.167,161.5 204.5,161.5C 204.672,162.492 204.338,163.158 203.5,163.5C 203.5,162.833 203.5,162.167 203.5,161.5 Z"/></g>
<g><path style="opacity:0.012" fill="#000000" d="M 202.5,163.5 C 202.833,163.5 203.167,163.5 203.5,163.5C 203.315,164.17 202.981,164.17 202.5,163.5 Z"/></g>
<g><path style="opacity:0.008" fill="#000000" d="M 201.5,164.5 C 201.833,164.5 202.167,164.5 202.5,164.5C 202.672,165.492 202.338,166.158 201.5,166.5C 201.5,165.833 201.5,165.167 201.5,164.5 Z"/></g>
<g><path style="opacity:0.008" fill="#000000" d="M 200.5,166.5 C 200.833,166.5 201.167,166.5 201.5,166.5C 201.672,167.492 201.338,168.158 200.5,168.5C 200.5,167.833 200.5,167.167 200.5,166.5 Z"/></g>
<g><path style="opacity:0.008" fill="#000000" d="M 199.5,168.5 C 199.833,168.5 200.167,168.5 200.5,168.5C 200.315,169.17 199.981,169.17 199.5,168.5 Z"/></g>
<g><path style="opacity:0.008" fill="#000000" d="M 198.5,169.5 C 198.833,169.5 199.167,169.5 199.5,169.5C 199.672,170.492 199.338,171.158 198.5,171.5C 198.5,170.833 198.5,170.167 198.5,169.5 Z"/></g>
<g><path style="opacity:0.008" fill="#000000" d="M 197.5,171.5 C 197.833,171.5 198.167,171.5 198.5,171.5C 198.315,172.17 197.981,172.17 197.5,171.5 Z"/></g>
<g><path style="opacity:0.006" fill="#000000" d="M 196.5,172.5 C 196.833,172.5 197.167,172.5 197.5,172.5C 197.573,174.027 196.906,175.027 195.5,175.5C 195.5,174.833 195.5,174.167 195.5,173.5C 196.167,173.5 196.5,173.167 196.5,172.5 Z"/></g>
<g><path style="opacity:0.012" fill="#000000" d="M 194.5,175.5 C 194.833,175.5 195.167,175.5 195.5,175.5C 195.315,176.17 194.981,176.17 194.5,175.5 Z"/></g>
<g><path style="opacity:0.012" fill="#000000" d="M 193.5,176.5 C 193.833,176.5 194.167,176.5 194.5,176.5C 194.315,177.17 193.981,177.17 193.5,176.5 Z"/></g>
<g><path style="opacity:0.006" fill="#000000" d="M 192.5,177.5 C 192.833,177.5 193.167,177.5 193.5,177.5C 193.672,178.492 193.338,179.158 192.5,179.5C 192.5,178.833 192.5,178.167 192.5,177.5 Z"/></g>
<g><path style="opacity:0.008" fill="#000000" d="M 191.5,179.5 C 191.833,179.5 192.167,179.5 192.5,179.5C 192.315,180.17 191.981,180.17 191.5,179.5 Z"/></g>
<g><path style="opacity:0.012" fill="#000000" d="M 190.5,180.5 C 190.833,180.5 191.167,180.5 191.5,180.5C 191.315,181.17 190.981,181.17 190.5,180.5 Z"/></g>
<g><path style="opacity:0.012" fill="#000000" d="M 189.5,181.5 C 189.833,181.5 190.167,181.5 190.5,181.5C 190.315,182.17 189.981,182.17 189.5,181.5 Z"/></g>
<g><path style="opacity:0.012" fill="#000000" d="M 188.5,182.5 C 188.833,182.5 189.167,182.5 189.5,182.5C 189.315,183.17 188.981,183.17 188.5,182.5 Z"/></g>
<g><path style="opacity:0.016" fill="#000000" d="M 187.5,183.5 C 187.833,183.5 188.167,183.5 188.5,183.5C 188.315,184.17 187.981,184.17 187.5,183.5 Z"/></g>
<g><path style="opacity:0.012" fill="#000000" d="M 186.5,184.5 C 186.833,184.5 187.167,184.5 187.5,184.5C 187.315,185.17 186.981,185.17 186.5,184.5 Z"/></g>
<g><path style="opacity:0.012" fill="#000000" d="M 185.5,185.5 C 185.833,185.5 186.167,185.5 186.5,185.5C 186.315,186.17 185.981,186.17 185.5,185.5 Z"/></g>
<g><path style="opacity:0.008" fill="#000000" d="M 184.5,186.5 C 184.833,186.5 185.167,186.5 185.5,186.5C 185.315,187.17 184.981,187.17 184.5,186.5 Z"/></g>
<g><path style="opacity:0.012" fill="#000000" d="M 183.5,187.5 C 183.833,187.5 184.167,187.5 184.5,187.5C 184.315,188.17 183.981,188.17 183.5,187.5 Z"/></g>
<g><path style="opacity:0.012" fill="#000000" d="M 182.5,188.5 C 182.833,188.5 183.167,188.5 183.5,188.5C 183.315,189.17 182.981,189.17 182.5,188.5 Z"/></g>
<g><path style="opacity:0.012" fill="#000000" d="M 181.5,189.5 C 181.833,189.5 182.167,189.5 182.5,189.5C 182.315,190.17 181.981,190.17 181.5,189.5 Z"/></g>
<g><path style="opacity:0.012" fill="#000000" d="M 180.5,190.5 C 180.833,190.5 181.167,190.5 181.5,190.5C 181.315,191.17 180.981,191.17 180.5,190.5 Z"/></g>
<g><path style="opacity:0.012" fill="#000000" d="M 179.5,191.5 C 179.833,191.5 180.167,191.5 180.5,191.5C 180.315,192.17 179.981,192.17 179.5,191.5 Z"/></g>
<g><path style="opacity:0.008" fill="#000000" d="M 178.5,192.5 C 178.833,192.5 179.167,192.5 179.5,192.5C 179.315,193.17 178.981,193.17 178.5,192.5 Z"/></g>
<g><path style="opacity:0.008" fill="#000000" d="M 177.5,193.5 C 177.833,193.5 178.167,193.5 178.5,193.5C 178.315,194.17 177.981,194.17 177.5,193.5 Z"/></g>
<g><path style="opacity:0.006" fill="#00070a" d="M 38.5,193.5 C 39.1667,193.5 39.5,193.833 39.5,194.5C 37.654,195.742 37.3207,195.409 38.5,193.5 Z"/></g>
<g><path style="opacity:0.006" fill="#000406" d="M 176.5,193.5 C 176.5,194.167 176.833,194.5 177.5,194.5C 177.027,195.906 176.027,196.573 174.5,196.5C 174.5,196.167 174.5,195.833 174.5,195.5C 175.167,195.5 175.5,195.167 175.5,194.5C 175.5,193.833 175.833,193.5 176.5,193.5 Z"/></g>
<g><path style="opacity:0.016" fill="#000000" d="M 173.5,196.5 C 173.833,196.5 174.167,196.5 174.5,196.5C 174.315,197.17 173.981,197.17 173.5,196.5 Z"/></g>
<g><path style="opacity:0.005" fill="#0a1215" d="M 42.5,196.5 C 43.1667,196.5 43.5,196.833 43.5,197.5C 44.1667,197.5 44.5,197.833 44.5,198.5C 44.1034,199.525 43.4368,199.692 42.5,199C 41.4019,198.23 41.4019,197.397 42.5,196.5 Z"/></g>
<g><path style="opacity:0.006" fill="#091115" d="M 172.5,196.5 C 172.5,197.167 172.833,197.5 173.5,197.5C 173.027,198.906 172.027,199.573 170.5,199.5C 170.5,199.167 170.5,198.833 170.5,198.5C 171.167,198.5 171.5,198.167 171.5,197.5C 171.5,196.833 171.833,196.5 172.5,196.5 Z"/></g>
<g><path style="opacity:0.012" fill="#000000" d="M 169.5,199.5 C 169.833,199.5 170.167,199.5 170.5,199.5C 170.315,200.17 169.981,200.17 169.5,199.5 Z"/></g>
<g><path style="opacity:0.006" fill="#00080a" d="M 46.5,199.5 C 47.1667,199.5 47.5,199.833 47.5,200.5C 45.654,201.742 45.3207,201.409 46.5,199.5 Z"/></g>
<g><path style="opacity:0.007" fill="#000507" d="M 168.5,199.5 C 168.5,200.167 168.833,200.5 169.5,200.5C 169.027,201.906 168.027,202.573 166.5,202.5C 166.5,202.167 166.5,201.833 166.5,201.5C 167.167,201.5 167.5,201.167 167.5,200.5C 167.5,199.833 167.833,199.5 168.5,199.5 Z"/></g>
<g><path style="opacity:0.008" fill="#00080c" d="M 165.5,201.5 C 165.5,202.167 165.833,202.5 166.5,202.5C 166.158,203.338 165.492,203.672 164.5,203.5C 164.5,203.167 164.5,202.833 164.5,202.5C 164.5,201.833 164.833,201.5 165.5,201.5 Z"/></g>
<g><path style="opacity:0.006" fill="#0a1315" d="M 51.5,202.5 C 52.1667,202.5 52.5,202.833 52.5,203.5C 53.1667,203.5 53.5,203.833 53.5,204.5C 53.5,204.833 53.5,205.167 53.5,205.5C 50.9931,205.368 50.3264,204.368 51.5,202.5 Z"/></g>
<g><path style="opacity:0.012" fill="#000000" d="M 163.5,203.5 C 163.833,203.5 164.167,203.5 164.5,203.5C 164.315,204.17 163.981,204.17 163.5,203.5 Z"/></g>
<g><path style="opacity:0.006" fill="#000000" d="M 161.5,205.5 C 161.5,205.167 161.5,204.833 161.5,204.5C 162.167,204.5 162.833,204.5 163.5,204.5C 163.158,205.338 162.492,205.672 161.5,205.5 Z"/></g>
<g><path style="opacity:0.004" fill="#020b0e" d="M 54.5,204.5 C 55.1667,204.5 55.5,204.833 55.5,205.5C 55.5,205.833 55.5,206.167 55.5,206.5C 54.5084,206.672 53.8417,206.338 53.5,205.5C 54.1667,205.5 54.5,205.167 54.5,204.5 Z"/></g>
<g><path style="opacity:0.008" fill="#010a0e" d="M 160.5,204.5 C 160.5,205.167 160.833,205.5 161.5,205.5C 161.158,206.338 160.492,206.672 159.5,206.5C 159.5,206.167 159.5,205.833 159.5,205.5C 159.5,204.833 159.833,204.5 160.5,204.5 Z"/></g>
<g><path style="opacity:0.006" fill="#020c0e" d="M 56.5,205.5 C 57.1667,205.5 57.5,205.833 57.5,206.5C 57.5,206.833 57.5,207.167 57.5,207.5C 56.5084,207.672 55.8417,207.338 55.5,206.5C 56.1667,206.5 56.5,206.167 56.5,205.5 Z"/></g>
<g><path style="opacity:0.006" fill="#010b0e" d="M 158.5,205.5 C 158.5,206.167 158.833,206.5 159.5,206.5C 159.158,207.338 158.492,207.672 157.5,207.5C 157.5,207.167 157.5,206.833 157.5,206.5C 157.5,205.833 157.833,205.5 158.5,205.5 Z"/></g>
<g><path style="opacity:0.006" fill="#010a0d" d="M 58.5,206.5 C 59.1667,206.5 59.5,206.833 59.5,207.5C 59.5,207.833 59.5,208.167 59.5,208.5C 58.5084,208.672 57.8417,208.338 57.5,207.5C 58.1667,207.5 58.5,207.167 58.5,206.5 Z"/></g>
<g><path style="opacity:0.008" fill="#000609" d="M 156.5,206.5 C 156.5,207.167 156.833,207.5 157.5,207.5C 157.027,208.906 156.027,209.573 154.5,209.5C 154.5,209.167 154.5,208.833 154.5,208.5C 155.167,208.5 155.5,208.167 155.5,207.5C 155.5,206.833 155.833,206.5 156.5,206.5 Z"/></g>
<g><path style="opacity:0.006" fill="#010b0d" d="M 60.5,207.5 C 61.1667,207.5 61.5,207.833 61.5,208.5C 61.5,208.833 61.5,209.167 61.5,209.5C 60.5084,209.672 59.8417,209.338 59.5,208.5C 60.1667,208.5 60.5,208.167 60.5,207.5 Z"/></g>
<g><path style="opacity:0.008" fill="#020b0e" d="M 62.5,208.5 C 63.1667,208.5 63.5,208.833 63.5,209.5C 62.8333,210.833 62.1667,210.833 61.5,209.5C 62.1667,209.5 62.5,209.167 62.5,208.5 Z"/></g>
<g><path style="opacity:0.007" fill="#0c1519" d="M 148.5,210.5 C 148.842,209.662 149.508,209.328 150.5,209.5C 150.5,210.167 150.833,210.5 151.5,210.5C 151.158,211.338 150.492,211.672 149.5,211.5C 149.5,210.833 149.167,210.5 148.5,210.5 Z"/></g>
<g><path style="opacity:0.007" fill="#01080b" d="M 152.5,208.5 C 152.842,209.338 153.508,209.672 154.5,209.5C 153.791,210.404 152.791,210.737 151.5,210.5C 151.5,210.167 151.5,209.833 151.5,209.5C 151.5,208.833 151.833,208.5 152.5,208.5 Z"/></g>
<g><path style="opacity:0.01" fill="#000000" d="M 67.5,211.5 C 67.1034,212.525 66.4368,212.692 65.5,212C 66.0944,211.536 66.7611,211.369 67.5,211.5 Z"/></g>
<g><path style="opacity:0.008" fill="#000000" d="M 147.5,212.5 C 147.5,212.167 147.5,211.833 147.5,211.5C 148.167,211.5 148.833,211.5 149.5,211.5C 149.158,212.338 148.492,212.672 147.5,212.5 Z"/></g>
<g><path style="opacity:0.007" fill="#050c0f" d="M 143.5,212.5 C 143.842,211.662 144.508,211.328 145.5,211.5C 145.842,212.338 146.508,212.672 147.5,212.5C 146.791,213.404 145.791,213.737 144.5,213.5C 144.5,212.833 144.167,212.5 143.5,212.5 Z"/></g>
<g><path style="opacity:0.007" fill="#000101" d="M 72.5,212.5 C 73.1667,212.5 73.5,212.833 73.5,213.5C 73.5,213.833 73.5,214.167 73.5,214.5C 70.075,214.633 69.7417,213.967 72.5,212.5 Z"/></g>
<g><path style="opacity:0.01" fill="#000000" d="M 142.5,213.5 C 143.167,213.5 143.833,213.5 144.5,213.5C 143.833,214.833 143.167,214.833 142.5,213.5 Z"/></g>
<g><path style="opacity:0.008" fill="#000000" d="M 73.5,214.5 C 74.1667,214.5 74.8333,214.5 75.5,214.5C 74.8333,215.833 74.1667,215.833 73.5,214.5 Z"/></g>
<g><path style="opacity:0.007" fill="#030b0e" d="M 134.5,215.5 C 134.842,214.662 135.508,214.328 136.5,214.5C 136.918,215.222 137.584,215.722 138.5,216C 137.072,216.579 135.738,216.412 134.5,215.5 Z"/></g>
<g><path style="opacity:0.01" fill="#000000" d="M 139.5,214.5 C 140.239,214.369 140.906,214.536 141.5,215C 140.563,215.692 139.897,215.525 139.5,214.5 Z"/></g>
<g><path style="opacity:0.01" fill="#000000" d="M 79.5,215.5 C 79.1034,216.525 78.4368,216.692 77.5,216C 78.0944,215.536 78.7611,215.369 79.5,215.5 Z"/></g>
<g><path style="opacity:0.009" fill="#000000" d="M 83.5,216.5 C 82.7494,217.573 81.7494,217.74 80.5,217C 81.448,216.517 82.448,216.351 83.5,216.5 Z"/></g>
<g><path style="opacity:0.009" fill="#000102" d="M 130.5,216.5 C 130.842,215.662 131.508,215.328 132.5,215.5C 132.918,216.222 133.584,216.722 134.5,217C 133.072,217.579 131.738,217.412 130.5,216.5 Z"/></g>
<g><path style="opacity:0.009" fill="#000000" d="M 84.5,218.5 C 85.5676,217.566 86.901,217.232 88.5,217.5C 88.5,217.833 88.5,218.167 88.5,218.5C 87.1667,218.5 85.8333,218.5 84.5,218.5 Z"/></g>
<g><path style="opacity:0.012" fill="#000000" d="M 127.5,218.5 C 127.5,218.167 127.5,217.833 127.5,217.5C 128.791,217.263 129.791,217.596 130.5,218.5C 129.5,218.5 128.5,218.5 127.5,218.5 Z"/></g>
</svg>
